<svg xmlns="http://www.w3.org/2000/svg" viewBox="0 0 50 50">
    <path d="M 24.8125 3 A 1.0001 1.0001 0 0 0 24.25 3.34375 C 24.25 3.34375 22.676295 5.0017066 21.15625 5.21875 C 19.440314 5.4635872 14.78125 6.3125 14.78125 6.3125 C 12.967572 6.6183359 11.737106 8.3379067 12.03125 10.15625 C 12.154191 10.914971 12.538921 11.61526 13.0625 12.15625 C 12.264388 12.894578 11.844901 14.004276 12.03125 15.15625 C 12.15535 15.922123 12.530895 16.619857 13.0625 17.15625 C 12.264388 17.894578 11.844901 19.004276 12.03125 20.15625 C 12.154202 20.915038 12.538792 21.590426 13.0625 22.125 C 12.264111 22.872468 11.843981 24.004101 12.03125 25.15625 C 12.326787 26.980137 14.087239 28.274526 15.90625 27.96875 L 17 27.78125 L 17 30 L 15 30 A 1.0001 1.0001 0 0 0 14.90625 30 A 1.0001 1.0001 0 0 0 14 31 L 14 33.0625 C 14 36.400092 16.072902 39.266974 19 40.4375 L 19 43 C 19 44.64497 20.35503 46 22 46 L 24 48 L 26 48 L 28 46 C 29.64497 46 31 44.64497 31 43 L 31 40.4375 C 33.926953 39.266974 36 36.400092 36 33.0625 L 36 31 A 1.0001 1.0001 0 0 0 35 30 L 33 30 L 33 25.0625 L 35.21875 24.6875 C 37.033098 24.381791 38.262894 22.662093 37.96875 20.84375 C 37.84926 20.106327 37.474228 19.462296 36.96875 18.96875 C 37.763073 18.178999 38.156552 17.004708 37.96875 15.84375 C 37.850568 15.114397 37.496764 14.460292 37 13.96875 C 37.773239 13.170354 38.154149 11.98985 37.96875 10.84375 C 37.673213 9.0198627 35.912761 7.7254741 34.09375 8.03125 L 32.96875 8.21875 C 32.974776 8.1484848 33 8.0732597 33 8 C 33 6.9105248 32.277134 6.1106861 31.5 5.53125 C 30.722866 4.9518139 29.797178 4.5190469 28.875 4.15625 C 27.030645 3.4306561 25.21875 3.03125 25.21875 3.03125 A 1.0001 1.0001 0 0 0 24.90625 3 A 1.0001 1.0001 0 0 0 24.8125 3 z M 25.25 5.125 C 25.630402 5.2133757 26.703513 5.4407681 28.125 6 C 28.952572 6.3255781 29.777321 6.7259673 30.3125 7.125 C 30.847679 7.5240327 31 7.8569752 31 8 C 31 8.2712199 30.90488 8.3332074 30.71875 8.46875 C 30.532622 8.6042926 30.34375 8.65625 30.34375 8.65625 A 1.0045064 1.0045064 0 0 0 30.25 8.6875 L 15.71875 11.15625 L 15.59375 11.15625 A 1.014663 1.014663 0 0 0 15.5625 11.15625 C 14.916993 11.26476 14.158142 10.626855 14.03125 9.84375 C 13.907394 9.0780933 14.388678 8.4054141 15.125 8.28125 C 15.125 8.28125 19.845436 7.4459128 21.4375 7.21875 C 23.480145 6.9270858 24.703317 5.7100119 25.25 5.125 z M 34.71875 10 C 35.343337 10.019369 35.859845 10.484151 35.96875 11.15625 C 36.090112 11.90649 35.515065 12.829568 34.875 12.9375 L 34.34375 13.03125 C 34.26161 13.038635 34.176262 13.01738 34.09375 13.03125 L 15.78125 16.125 A 1.0001 1.0001 0 0 0 15.5625 16.15625 C 14.915493 16.265012 14.158103 15.626615 14.03125 14.84375 C 13.907394 14.078093 14.388678 13.405414 15.125 13.28125 L 15.84375 13.15625 L 15.90625 13.15625 A 1.014663 1.014663 0 0 0 16 13.125 L 34.4375 10.03125 C 34.529874 10.015722 34.629523 9.997233 34.71875 10 z M 34.71875 15 C 35.343337 15.019369 35.859845 15.484151 35.96875 16.15625 C 36.090203 16.907052 35.518574 17.797726 34.875 17.90625 L 34.125 18.03125 C 34.11469 18.032881 34.104064 18.029516 34.09375 18.03125 L 15.6875 21.125 A 1.0001 1.0001 0 0 0 15.65625 21.125 L 15.53125 21.15625 C 14.891597 21.240398 14.156134 20.614461 14.03125 19.84375 C 13.907394 19.078093 14.388678 18.405414 15.125 18.28125 L 34.28125 15.0625 A 1.0001 1.0001 0 0 0 34.375 15.03125 L 34.4375 15.03125 C 34.529874 15.015722 34.629523 14.997233 34.71875 15 z M 34.71875 20 C 35.343337 20.019369 35.859845 20.484151 35.96875 21.15625 C 36.092606 21.921907 35.612652 22.594459 34.875 22.71875 L 21.84375 24.9375 L 21 25.0625 L 21 25.90625 L 21 30 L 19 30 L 19 26.59375 L 19 25.40625 L 17.84375 25.59375 L 15.5625 25.96875 C 14.823511 26.092974 14.155713 25.611863 14.03125 24.84375 C 13.906846 24.078369 14.387348 23.405541 15.125 23.28125 L 34.4375 20.03125 C 34.529874 20.015722 34.629523 19.997233 34.71875 20 z M 31 25.40625 L 31 30 L 29 30 L 29 25.75 L 31 25.40625 z M 27 26.0625 L 27 30 L 23 30 L 23 26.75 L 27 26.0625 z M 16 32 L 34 32 L 34 33.0625 C 34 36.354931 31.354931 39 28.0625 39 L 21.9375 39 C 18.643928 39 16 36.354931 16 33.0625 L 16 32 z M 21 41 L 29 41 L 29 43 C 29 43.56503 28.56503 44 28 44 L 22 44 C 21.43497 44 21 43.56503 21 43 L 21 41 z"></path>
</svg>
