<svg xmlns="http://www.w3.org/2000/svg" viewBox="0 0 50 50" enable-background="new 0 0 50 50">
    <path d="M 11 0 C 10.477778 0 9.9395305 0.18546949 9.5625 0.5625 C 9.1854695 0.93953051 9 1.4777778 9 2 L 9 19 C 9 19.522222 9.1854695 20.060469 9.5625 20.4375 C 9.9395305 20.814531 10.477778 21 11 21 L 39 21 C 39.522222 21 40.060469 20.814531 40.4375 20.4375 C 40.814531 20.060469 41 19.522222 41 19 L 41 2 C 41 1.4777778 40.814531 0.93953051 40.4375 0.5625 C 40.060469 0.18546949 39.522222 0 39 0 L 11 0 z M 11 2 L 39 2 L 39 19 L 11 19 L 11 2 z M 23 6 L 23 13.09375 L 24.8125 11.40625 L 25.90625 14 L 26.90625 13.59375 L 25.6875 11 L 28.09375 10.8125 L 23 6 z M 18 22 L 18 24 L 32 24 L 32 22 L 18 22 z M 0.8125 25 A 1.0001 1.0001 0 0 0 0 26 L 0 30 A 1.0001 1.0001 0 0 0 1 31 L 2 31 L 2 49 A 1.0001 1.0001 0 0 0 3 50 L 7 50 A 1.0001 1.0001 0 0 0 8 49 L 8 31 L 42 31 L 42 49 A 1.0001 1.0001 0 0 0 43 50 L 47 50 A 1.0001 1.0001 0 0 0 48 49 L 48 31 L 49 31 A 1.0001 1.0001 0 0 0 50 30 L 50 26 A 1.0001 1.0001 0 0 0 49 25 L 1 25 A 1.0001 1.0001 0 0 0 0.90625 25 A 1.0001 1.0001 0 0 0 0.8125 25 z M 2 27 L 48 27 L 48 29 L 2 29 L 2 27 z M 4 31 L 6 31 L 6 48 L 4 48 L 4 31 z M 44 31 L 46 31 L 46 48 L 44 48 L 44 31 z"></path>
</svg>
