<svg xmlns="http://www.w3.org/2000/svg" version="1" viewBox="0 0 50 50" enable-background="new 0 0 50 50">
    <path style="text-indent:0;text-align:start;line-height:normal;text-transform:none;block-progression:tb;-inkscape-font-specification:Bitstream Vera Sans" d="M 6.8125 0 A 1.0001 1.0001 0 0 0 6 1 L 6 49 A 1.0001 1.0001 0 0 0 7 50 L 43 50 A 1.0001 1.0001 0 0 0 44 49 L 44 1 A 1.0001 1.0001 0 0 0 43 0 L 7 0 A 1.0001 1.0001 0 0 0 6.90625 0 A 1.0001 1.0001 0 0 0 6.8125 0 z M 8 2 L 42 2 L 42 48 L 40 48 L 40 5 A 1.0001 1.0001 0 0 0 39 4 L 11 4 A 1.0001 1.0001 0 0 0 10.90625 4 A 1.0001 1.0001 0 0 0 10 5 L 10 48 L 8 48 L 8 2 z M 12 6 L 38 6 L 38 48 L 12 48 L 12 6 z M 32 24 C 30.895431 24 30 24.895431 30 26 C 30 27.104569 30.895431 28 32 28 C 33.104569 28 34 27.104569 34 26 C 34 24.895431 33.104569 24 32 24 z" color="#000" overflow="visible" enable-background="accumulate" font-family="Bitstream Vera Sans"></path>
</svg>
