<?xml version="1.0" encoding="iso-8859-1"?>
<!-- Generator: Adobe Illustrator 19.0.0, SVG Export Plug-In . SVG Version: 6.00 Build 0)  -->
<svg version="1.1" id="Layer_1" xmlns="http://www.w3.org/2000/svg" xmlns:xlink="http://www.w3.org/1999/xlink" x="0px" y="0px"
	 viewBox="0 0 512 512" style="enable-background:new 0 0 512 512;" xml:space="preserve">
<g>
	<g>
		<path d="M424.159,223.647L344.187,6.672C342.711,2.663,338.89,0,334.617,0H177.382c-4.272,0-8.093,2.663-9.57,6.672
			L87.841,223.647c-1.154,3.128-0.704,6.624,1.203,9.36c1.907,2.736,5.032,4.366,8.366,4.366h123.234v211.252h-69.463
			c-5.632,0-10.199,4.567-10.199,10.199v42.976c0,5.632,4.567,10.199,10.199,10.199h209.638c5.632,0,10.199-4.567,10.199-10.199
			v-42.976c0-5.632-4.567-10.199-10.199-10.199h-69.463V237.373H414.59c3.335,0,6.459-1.631,8.366-4.366
			C424.863,230.271,425.313,226.776,424.159,223.647z M350.619,469.024v22.578H161.381v-22.578H350.619z M241.043,448.625V237.373
			h29.914v211.252H241.043z M112.04,216.975l72.453-196.576h143.013l72.453,196.576H112.04z"/>
	</g>
</g>
<g>
	<g>
		<path d="M278.012,185.53h-8.386c-5.632,0-10.199,4.567-10.199,10.199c0,5.632,4.567,10.199,10.199,10.199h8.386
			c5.632,0,10.199-4.567,10.199-10.199C288.211,190.097,283.644,185.53,278.012,185.53z"/>
	</g>
</g>
<g>
	<g>
		<path d="M359.771,185.53h-48.217c-5.633,0-10.199,4.567-10.199,10.199c0,5.632,4.567,10.199,10.199,10.199h48.217
			c5.632,0,10.199-4.567,10.199-10.199C369.97,190.097,365.403,185.53,359.771,185.53z"/>
	</g>
</g>
</svg>
