<svg xmlns="http://www.w3.org/2000/svg" width="50" height="50" viewBox="0 0 50 50">
    <path style="text-indent:0;text-align:start;line-height:normal;text-transform:none;block-progression:tb;-inkscape-font-specification:Bitstream Vera Sans" d="M 15.5 11 C 12.449784 11 9.8073143 12.041479 7.9375 13.90625 C 6.0676857 15.771021 5 18.445683 5 21.53125 L 5 22.1875 C 2.1396556 22.868011 0 25.437424 0 28.5 C 0 31.548355 2.1571362 33.993359 5 34.6875 L 5 40.3125 C 5 43.044414 6.6479734 45.400439 9 46.4375 L 9 49 A 1.0001 1.0001 0 0 0 10 50 L 16 50 A 1.0001 1.0001 0 0 0 17 49 L 17 47 L 33 47 L 33 49 A 1.0001 1.0001 0 0 0 34 50 L 40 50 A 1.0001 1.0001 0 0 0 41 49 L 41 46.4375 C 43.352027 45.400439 45 43.044414 45 40.3125 L 45 34.6875 C 47.84305 33.994169 50 31.548355 50 28.5 C 50 25.437424 47.860345 22.868011 45 22.1875 L 45 21.53125 C 45 18.445683 43.932314 15.771021 42.0625 13.90625 C 40.192686 12.041479 37.550216 11 34.5 11 L 15.5 11 z M 15.5 13 L 34.5 13 C 37.102784 13 39.189314 13.849521 40.65625 15.3125 C 42.123186 16.775479 43 18.893817 43 21.53125 L 43 22.03125 C 39.656735 22.291539 37 25.092246 37 28.5 C 37 29.616667 36.746089 31.100595 36.125 32.1875 C 35.503911 33.274405 34.666667 34 33 34 L 17 34 C 15.333333 34 14.496089 33.274405 13.875 32.1875 C 13.253911 31.100595 13 29.616667 13 28.5 C 13 25.092246 10.343265 22.291539 7 22.03125 L 7 21.53125 C 7 18.893817 7.8768143 16.775479 9.34375 15.3125 C 10.810686 13.849521 12.897216 13 15.5 13 z M 6.5 24 C 8.9977323 24 11 26.002268 11 28.5 C 11 29.883333 11.246089 31.649405 12.125 33.1875 C 13.003911 34.725595 14.666667 36 17 36 L 33 36 C 35.333333 36 36.996089 34.725595 37.875 33.1875 C 38.753911 31.649405 39 29.883333 39 28.5 C 39 26.002268 41.002268 24 43.5 24 C 43.607623 24 43.706837 24.023936 43.8125 24.03125 C 46.159075 24.193687 48 26.109891 48 28.5 C 48 30.868215 46.18651 32.775304 43.875 32.96875 L 42.84375 33.0625 L 42.96875 34.09375 C 42.988164 34.267629 43 34.423824 43 34.59375 L 43 40.3125 C 43 42.458356 41.577052 44.21516 39.625 44.78125 A 1.0001 1.0001 0 0 0 39.5 44.84375 C 39.118545 44.942548 38.726823 45 38.3125 45 L 11.6875 45 C 11.273177 45 10.881455 44.942548 10.5 44.84375 A 1.0001 1.0001 0 0 0 10.46875 44.8125 C 10.447016 44.806681 10.427854 44.787369 10.40625 44.78125 A 1.0001 1.0001 0 0 0 10.15625 44.71875 C 8.314506 44.088601 7 42.380229 7 40.3125 L 7 34.59375 C 7 34.423824 7.011911 34.266118 7.03125 34.09375 L 7.15625 33.0625 L 6.125 32.96875 C 3.8132609 32.774466 2 30.868215 2 28.5 C 2 26.002268 4.0022677 24 6.5 24 z M 11 46.96875 C 11.224578 46.991616 11.456972 47 11.6875 47 L 15 47 L 15 48 L 11 48 L 11 46.96875 z M 39 46.96875 L 39 48 L 35 48 L 35 47 L 38.3125 47 C 38.543028 47 38.775422 46.991616 39 46.96875 z" color="#000" overflow="visible" enable-background="accumulate" font-family="Bitstream Vera Sans"></path>
</svg>
