<svg xmlns="http://www.w3.org/2000/svg" viewBox="0 0 50 50" width="256px" height="256px">
    <path style="text-indent:0;text-align:start;line-height:normal;text-transform:none;block-progression:tb;-inkscape-font-specification:Bitstream Vera Sans" d="M 41.03125 0 A 1.0001 1.0001 0 0 0 40.5 1.71875 C 41.811438 3.0301882 42.59375 4.8671196 42.59375 6.90625 C 42.59375 11.067243 39.254743 14.40625 35.09375 14.40625 C 34.227083 14.40625 33.45594 14.233477 32.75 13.96875 A 1.0001 1.0001 0 0 0 31.5625 15.4375 C 33.343612 18.220488 36.466667 20 40 20 C 45.546667 20 50.09375 15.452917 50.09375 9.90625 A 1.0001 1.0001 0 0 0 50.09375 9.875 C 49.982843 4.8841702 46.23548 0.66705415 41.34375 0 A 1.0001 1.0001 0 0 0 41.03125 0 z M 43.59375 2.84375 C 46.199305 4.1709218 48.013635 6.8336222 48.09375 9.90625 C 48.094022 9.91669 48.093518 9.927051 48.09375 9.9375 C 48.076276 14.376243 44.442628 18 40 18 C 38.206207 18 36.698452 17.303719 35.375 16.34375 C 40.475846 16.184958 44.59375 12.044993 44.59375 6.90625 C 44.59375 5.4402323 44.191976 4.089175 43.59375 2.84375 z M 16.875 18 A 1.0001 1.0001 0 0 0 16.125 18.53125 L 0.125 48.53125 A 1.0001 1.0001 0 0 0 1 50 L 32.84375 50 L 33 50 A 1.0001 1.0001 0 0 0 33.09375 50 L 49 50 A 1.0001 1.0001 0 0 0 49.875 48.53125 L 36.875 24.53125 A 1.0001 1.0001 0 0 0 35.875 24 A 1.0001 1.0001 0 0 0 35.125 24.53125 L 28.03125 37.5625 L 17.875 18.53125 A 1.0001 1.0001 0 0 0 16.875 18 z M 17 21.125 L 31.34375 48 L 2.65625 48 L 17 21.125 z M 36 27.09375 L 47.34375 48 L 33.59375 48 L 29.125 39.65625 L 36 27.09375 z" color="#000" overflow="visible" enable-background="accumulate" font-family="Bitstream Vera Sans"></path>
</svg>
