<svg xmlns="http://www.w3.org/2000/svg" width="50" height="50" viewBox="0 0 50 50">
    <path d="M 24.90625 3.96875 A 1.0001 1.0001 0 0 0 24.78125 4 A 1.0001 1.0001 0 0 0 24 5 L 24 11 A 1.0001 1.0001 0 1 0 26 11 L 26 5 A 1.0001 1.0001 0 0 0 24.90625 3.96875 z M 10.65625 9.84375 A 1.0001 1.0001 0 0 0 10.15625 11.5625 L 14.40625 15.8125 A 1.0001 1.0001 0 1 0 15.8125 14.40625 L 11.5625 10.15625 A 1.0001 1.0001 0 0 0 10.75 9.84375 A 1.0001 1.0001 0 0 0 10.65625 9.84375 z M 39.03125 9.84375 A 1.0001 1.0001 0 0 0 38.4375 10.15625 L 34.1875 14.40625 A 1.0001 1.0001 0 1 0 35.59375 15.8125 L 39.84375 11.5625 A 1.0001 1.0001 0 0 0 39.03125 9.84375 z M 25 15 C 19.486 15 15 19.486 15 25 C 15 30.514 19.486 35 25 35 C 30.514 35 35 30.514 35 25 C 35 19.486 30.514 15 25 15 z M 4.71875 24 A 1.0043849 1.0043849 0 0 0 5 26 L 11 26 A 1.0001 1.0001 0 1 0 11 24 L 5 24 A 1.0001 1.0001 0 0 0 4.90625 24 A 1.001098 1.001098 0 0 0 4.8125 24 A 1.0043849 1.0043849 0 0 0 4.71875 24 z M 38.71875 24 A 1.0043849 1.0043849 0 0 0 39 26 L 45 26 A 1.0001 1.0001 0 1 0 45 24 L 39 24 A 1.0001 1.0001 0 0 0 38.90625 24 A 1.001098 1.001098 0 0 0 38.8125 24 A 1.0043849 1.0043849 0 0 0 38.71875 24 z M 15 33.875 A 1.0001 1.0001 0 0 0 14.40625 34.1875 L 10.15625 38.4375 A 1.0001 1.0001 0 1 0 11.5625 39.84375 L 15.8125 35.59375 A 1.0001 1.0001 0 0 0 15.09375 33.875 A 1.0001 1.0001 0 0 0 15 33.875 z M 34.6875 33.875 A 1.0001 1.0001 0 0 0 34.1875 35.59375 L 38.4375 39.84375 A 1.0001 1.0001 0 1 0 39.84375 38.4375 L 35.59375 34.1875 A 1.0001 1.0001 0 0 0 34.875 33.875 A 1.0001 1.0001 0 0 0 34.78125 33.875 A 1.0001 1.0001 0 0 0 34.6875 33.875 z M 24.90625 37.96875 A 1.0001 1.0001 0 0 0 24.78125 38 A 1.0001 1.0001 0 0 0 24 39 L 24 45 A 1.0001 1.0001 0 1 0 26 45 L 26 39 A 1.0001 1.0001 0 0 0 24.90625 37.96875 z"></path>
</svg>
