<svg xmlns="http://www.w3.org/2000/svg" width="50" height="50" viewBox="0 0 50 50">
    <path style="text-indent:0;text-align:start;line-height:normal;text-transform:none;block-progression:tb;-inkscape-font-specification:Bitstream Vera Sans" d="M 37.875 2 A 1.0001 1.0001 0 0 0 37.28125 2.28125 L 25 14.5625 L 17.71875 7.28125 A 1.016466 1.016466 0 1 0 16.28125 8.71875 L 22.5625 15 L 6 15 C 2.6983746 15 0 17.698375 0 21 L 0 44 C 0 47.301625 2.6983746 50 6 50 L 44 50 C 47.301625 50 50 47.301625 50 44 L 50 21 C 50 17.698375 47.301625 15 44 15 L 27.4375 15 L 38.71875 3.71875 A 1.0001 1.0001 0 0 0 37.875 2 z M 6 17 L 24.8125 17 A 1.0001 1.0001 0 0 0 25.1875 17 L 44 17 C 46.220375 17 48 18.779625 48 21 L 48 44 C 48 46.220375 46.220375 48 44 48 L 6 48 C 3.7796254 48 2 46.220375 2 44 L 2 21 C 2 18.779625 3.7796254 17 6 17 z M 20.5 18 C 13.308092 18 9.0579087 17.902755 6.28125 19.9375 C 4.8929207 20.954873 4.0489746 22.498831 3.59375 24.53125 C 3.1385254 26.563669 3 29.135252 3 32.5 C 3 35.86574 3.1385271 38.436137 3.59375 40.46875 C 4.0489729 42.501363 4.8928432 44.045369 6.28125 45.0625 C 9.0580637 47.096762 13.308185 47 20.5 47 C 27.656385 47 31.931152 47.11304 34.71875 45.09375 C 36.112549 44.084105 36.945385 42.538351 37.40625 40.5 C 37.867115 38.461649 38 35.892601 38 32.5 C 38 29.109901 37.886135 26.536803 37.4375 24.5 C 36.988865 22.463197 36.136534 20.918546 34.75 19.90625 C 31.976932 17.881658 27.727446 18 20.5 18 z M 20.5 20 C 27.725554 20 31.730068 20.139342 33.59375 21.5 C 34.525591 22.180329 35.081916 23.181271 35.46875 24.9375 C 35.855584 26.693729 36 29.160599 36 32.5 C 36 35.838399 35.865541 38.307538 35.46875 40.0625 C 35.071959 41.817462 34.473576 42.817395 33.53125 43.5 C 31.646598 44.86521 27.654615 45 20.5 45 C 13.314815 45 9.3164363 44.813988 7.4375 43.4375 C 6.4980318 42.749256 5.9233709 41.782106 5.53125 40.03125 C 5.1391291 38.280394 5 35.81276 5 32.5 C 5 29.188248 5.1391308 26.719425 5.53125 24.96875 C 5.9233692 23.218075 6.4979543 22.251002 7.4375 21.5625 C 9.3165913 20.185495 13.314908 20 20.5 20 z M 43 26 C 41.895431 26 41 26.895431 41 28 C 41 29.104569 41.895431 30 43 30 C 44.104569 30 45 29.104569 45 28 C 45 26.895431 44.104569 26 43 26 z M 43 35 C 41.895431 35 41 35.895431 41 37 C 41 38.104569 41.895431 39 43 39 C 44.104569 39 45 38.104569 45 37 C 45 35.895431 44.104569 35 43 35 z" color="#000" overflow="visible" enable-background="accumulate" font-family="Bitstream Vera Sans"></path>
</svg>
